<svg width="65" height="65" viewBox="0 0 65 65" fill="none" xmlns="http://www.w3.org/2000/svg">
<rect x="0.5" y="0.5" width="64" height="64" stroke="white"/>
<path d="M19.76 47H29.12V26.92H37.36V19H11.52V26.92H19.76V47Z" fill="white"/>
<path d="M28.6 47H44.12C51.2 47 54.88 43.72 54.88 39.24V39.16C54.88 35.32 52.56 33.4 48.96 32.36C51.96 31.32 53.96 29.28 53.96 25.96V25.88C53.96 23.96 53.24 22.52 52.24 21.52C50.6 19.88 48.16 19 44.28 19H28.6V47ZM37.72 30V26.08H41.76C43.76 26.08 44.76 26.76 44.76 28V28.08C44.76 29.32 43.8 30 41.8 30H37.72ZM37.72 39.92V35.76H42.44C44.48 35.76 45.48 36.6 45.48 37.8V37.88C45.48 39.08 44.44 39.92 42.4 39.92H37.72Z" fill="#0E58E3"/>
<rect x="28.6" y="19" width="9.2" height="7.1" fill="#009962"/>
</svg>
