<svg width="56" height="60" viewBox="0 0 56 60" fill="none" xmlns="http://www.w3.org/2000/svg">
<path d="M10.95 45H22.65V19.9H32.95V10H0.65V19.9H10.95V45Z" fill="black"/>
<path d="M22 45H41.4C50.25 45 54.85 40.9 54.85 35.3V35.2C54.85 30.4 51.95 28 47.45 26.7C51.2 25.4 53.7 22.85 53.7 18.7V18.6C53.7 16.2 52.8 14.4 51.55 13.15C49.5 11.1 46.45 10 41.6 10H22V45ZM33.4 23.75V18.85H38.45C40.95 18.85 42.2 19.7 42.2 21.25V21.35C42.2 22.9 41 23.75 38.5 23.75H33.4ZM33.4 36.15V30.95H39.3C41.85 30.95 43.1 32 43.1 33.5V33.6C43.1 35.1 41.8 36.15 39.25 36.15H33.4Z" fill="#0036A6"/>
<rect x="22" y="10" width="11.4" height="8.9" fill="#009962"/>
</svg>
